<?xml version="1.0" standalone="no"?>
<!DOCTYPE svg PUBLIC "-//W3C//DTD SVG 20010904//EN"
 "http://www.w3.org/TR/2001/REC-SVG-20010904/DTD/svg10.dtd">
<svg version="1.0" xmlns="http://www.w3.org/2000/svg"
 width="481.000000pt" height="481.000000pt" viewBox="0 0 481.000000 481.000000"
 preserveAspectRatio="xMidYMid meet">
<metadata>
Created by potrace 1.14, written by Peter Selinger 2001-2017
</metadata>
<g transform="translate(0.000000,481.000000) scale(0.100000,-0.100000)"
fill="#000000" stroke="none">
<path d="M2428 4803 c12 -2 30 -2 40 0 9 3 -1 5 -23 4 -22 0 -30 -2 -17 -4z"/>
<path d="M2560 4801 c0 -5 14 -9 31 -9 20 1 26 4 17 9 -18 12 -48 11 -48 0z"/>
<path d="M2186 4783 c-6 -6 -220 -32 -224 -28 -3 3 3 5 13 5 10 0 16 3 12 6
-11 11 -58 -6 -51 -18 5 -8 1 -9 -11 -4 -10 4 -21 2 -25 -4 -4 -6 -29 -12 -57
-13 -28 -1 -46 -5 -40 -9 7 -4 0 -8 -16 -8 -16 0 -26 4 -22 10 3 6 -1 10 -10
10 -11 0 -15 -5 -12 -15 9 -21 -8 -28 -64 -26 -27 0 -51 -5 -55 -11 -5 -8 -1
-9 12 -5 18 7 18 7 0 -8 -20 -15 -41 -19 -85 -15 -14 1 -21 -2 -17 -9 4 -6 1
-11 -8 -11 -8 0 -16 -4 -18 -10 -1 -5 -17 -11 -35 -12 -17 -2 -31 -7 -30 -11
3 -15 -47 -36 -70 -30 -14 3 -23 1 -23 -7 0 -7 -8 -9 -20 -5 -21 7 -28 -10 -7
-18 7 -3 2 -9 -13 -16 -14 -7 -41 -21 -60 -31 -39 -21 -54 -25 -45 -10 3 6 1
10 -4 10 -6 0 -11 -9 -11 -19 0 -15 -10 -21 -41 -26 -25 -4 -37 -10 -29 -15 9
-5 6 -12 -11 -23 -12 -9 -26 -14 -31 -11 -5 3 -7 0 -6 -8 2 -7 -7 -14 -20 -16
-12 -2 -20 -8 -17 -13 4 -5 0 -9 -9 -9 -8 0 -16 -5 -18 -11 -3 -9 -22 -15 -51
-18 -5 -1 -6 -5 -3 -10 8 -12 -21 -34 -34 -26 -6 3 -10 -3 -10 -14 0 -12 -4
-21 -10 -21 -10 0 -32 -17 -93 -72 -16 -14 -35 -25 -41 -24 -6 2 -7 1 -3 -2 9
-4 -146 -162 -159 -162 -5 0 -20 -21 -34 -47 -31 -59 -59 -93 -77 -93 -8 0
-12 -4 -9 -8 8 -13 -23 -52 -40 -52 -8 0 -12 -5 -9 -10 11 -18 -5 -48 -28 -54
-17 -5 -19 -8 -8 -15 10 -7 6 -14 -18 -32 -23 -17 -28 -25 -19 -32 11 -7 10
-10 0 -14 -6 -2 -10 -9 -6 -14 3 -5 -4 -9 -15 -9 -11 0 -23 -4 -26 -10 -3 -5
-2 -10 4 -10 14 0 7 -33 -9 -38 -7 -3 -10 0 -6 6 4 6 -2 8 -14 5 -16 -4 -18
-8 -9 -19 9 -11 8 -14 -1 -14 -9 0 -10 -3 -1 -13 14 -18 4 -27 -28 -28 -22 0
-23 -1 -7 -8 14 -5 16 -10 8 -15 -7 -4 -10 -11 -7 -16 3 -5 1 -12 -5 -15 -8
-5 -7 -11 1 -21 9 -11 7 -14 -11 -14 -15 0 -20 -5 -17 -14 3 -8 0 -19 -7 -25
-7 -6 -12 -25 -10 -41 3 -25 0 -30 -18 -30 -17 0 -19 -3 -10 -12 15 -15 16
-42 1 -32 -7 4 -10 1 -7 -7 3 -8 -2 -19 -11 -26 -10 -8 -11 -12 -4 -13 9 0 9
-8 2 -30 -6 -16 -14 -28 -18 -25 -4 2 -7 -6 -6 -18 1 -12 -4 -29 -12 -39 -8
-9 -14 -25 -13 -35 1 -10 2 -25 1 -33 -1 -13 -3 -13 -10 -1 -7 10 -10 -3 -10
-40 -1 -67 -4 -83 -18 -100 -6 -8 -11 -30 -11 -49 0 -19 -5 -75 -11 -125 -6
-49 -14 -177 -18 -282 l-6 -193 25 0 c23 0 38 -16 38 -40 0 -4 -9 -10 -20 -13
-25 -7 -26 -54 -4 -193 9 -54 18 -112 21 -129 3 -16 5 -48 5 -70 0 -26 2 -32
5 -15 5 23 6 21 19 -15 8 -22 15 -57 16 -77 0 -20 5 -35 9 -32 4 2 6 -7 3 -21
-3 -16 3 -32 17 -46 11 -11 18 -27 15 -35 -4 -10 -2 -12 5 -8 7 4 10 1 7 -7
-3 -8 3 -25 13 -38 10 -13 16 -27 13 -32 -3 -5 2 -16 10 -25 9 -8 16 -24 16
-34 0 -10 5 -22 11 -26 8 -4 8 -8 0 -13 -6 -4 -1 -17 14 -35 22 -26 27 -38 24
-62 0 -3 10 -14 22 -25 12 -10 18 -19 13 -19 -5 0 -2 -5 6 -10 13 -8 13 -10 1
-10 -11 0 -9 -4 5 -15 13 -10 15 -14 5 -15 -8 0 -11 -3 -8 -7 4 -3 -1 -12 -11
-20 -13 -11 -14 -13 -2 -12 35 3 51 -1 44 -13 -5 -7 -2 -10 7 -6 8 2 22 -4 32
-14 9 -10 12 -18 6 -18 -7 0 2 -13 18 -29 21 -19 28 -32 21 -39 -7 -7 1 -18
21 -33 20 -15 27 -25 20 -30 -7 -4 -4 -9 10 -14 11 -3 21 -13 21 -21 0 -8 6
-14 14 -14 12 0 27 -20 30 -40 1 -3 48 -53 105 -112 89 -92 109 -108 136 -108
38 0 49 -8 34 -27 -12 -13 4 -33 70 -86 12 -10 19 -22 16 -27 -3 -5 0 -7 8 -4
14 5 36 -14 34 -31 0 -5 8 -12 19 -14 10 -2 23 -9 27 -17 4 -8 15 -14 23 -14
33 0 50 -21 46 -58 l-5 -35 39 5 c53 8 90 -4 86 -26 -2 -13 2 -17 15 -14 25 6
75 -20 67 -34 -5 -7 0 -9 14 -6 14 4 30 -2 48 -18 14 -14 33 -24 43 -23 20 3
88 -27 73 -32 -5 -2 -12 -13 -14 -24 -2 -16 4 -21 40 -26 32 -4 45 -2 49 8 3
7 10 10 15 7 6 -4 27 -8 47 -11 20 -2 63 -13 96 -23 377 -117 760 -140 1140
-69 172 32 352 86 477 144 31 14 70 27 86 28 17 1 28 5 25 10 -2 4 2 7 11 7 8
0 17 -6 19 -12 3 -7 6 -3 6 10 1 21 10 26 37 23 7 -1 14 6 18 14 3 9 10 13 16
10 5 -3 10 -2 10 3 0 17 60 36 73 23 18 -18 47 -13 47 9 0 32 1 34 18 53 9 10
24 16 34 14 10 -3 16 -1 12 4 -3 5 0 9 6 9 6 0 8 5 5 10 -5 9 18 15 29 8 2 -2
14 9 26 25 12 15 26 25 31 22 5 -4 9 -1 9 5 0 7 7 9 15 6 11 -4 15 0 13 12 -2
12 3 17 20 16 15 0 22 5 22 18 0 11 7 18 20 18 13 0 18 5 14 15 -4 8 -1 15 5
15 6 0 11 6 11 14 0 23 56 77 74 70 9 -3 16 -1 16 5 0 6 10 16 23 22 12 5 33
25 45 43 12 18 34 39 47 46 14 7 25 20 25 27 0 8 9 17 19 21 19 7 21 10 21 32
0 6 9 10 21 10 15 0 19 5 15 15 -4 10 2 19 17 25 12 5 15 9 7 9 -9 1 -1 15 22
38 19 21 38 46 41 56 4 9 14 17 23 17 11 0 15 6 11 20 -4 15 0 20 13 20 10 0
21 7 24 16 5 12 2 15 -11 10 -10 -4 -1 9 20 28 26 23 34 36 25 40 -10 4 -8 9
6 18 10 7 26 21 35 30 8 10 22 18 31 18 11 0 16 10 16 35 0 25 -5 35 -16 35
-13 0 -13 1 0 10 8 5 24 7 36 4 18 -5 20 -1 19 25 -1 16 -7 36 -13 44 -10 12
-9 16 3 21 9 3 13 10 10 16 -3 6 1 7 10 4 11 -5 14 -2 9 10 -3 9 -1 16 5 16 6
0 8 7 5 15 -4 8 -1 15 6 15 10 0 10 3 1 14 -8 10 -9 16 -1 21 6 3 8 10 5 15
-3 5 -1 11 5 15 5 3 10 16 11 28 0 12 3 16 6 9 2 -6 9 -9 14 -6 6 4 6 10 -1
18 -10 13 7 83 18 72 9 -10 31 15 25 30 -3 9 2 14 16 14 27 0 29 36 2 43 -19
5 -19 8 -6 63 7 32 18 60 23 62 5 1 8 12 5 22 -8 31 7 116 17 99 6 -8 7 9 3
42 -3 34 -1 64 6 77 12 22 0 57 -24 74 -5 4 1 16 15 28 24 21 24 22 23 213 -2
270 -5 340 -15 325 -5 -8 -8 -2 -8 19 0 17 -3 39 -7 49 -4 12 -3 15 5 10 17
-10 15 10 -2 26 -20 20 -29 74 -17 97 7 13 8 22 1 26 -6 3 -7 17 -4 31 4 14 2
24 -4 24 -6 0 -13 -8 -15 -17 -3 -10 -5 -4 -6 14 0 17 -6 35 -11 38 -6 4 -8
10 -5 15 3 5 1 11 -5 15 -5 3 -10 11 -10 16 0 6 4 8 9 5 11 -7 21 18 13 30 -4
5 -14 9 -22 9 -9 0 -15 9 -15 21 -1 12 -7 29 -14 38 -12 14 -11 18 4 30 13 9
15 15 7 20 -7 4 -12 16 -12 28 0 14 -5 18 -15 15 -8 -4 -17 -2 -20 3 -3 4 1
11 7 13 8 3 6 6 -4 6 -10 1 -18 6 -18 12 0 5 4 8 8 5 4 -2 8 4 8 14 0 11 -5
16 -14 12 -18 -7 -35 20 -19 30 8 5 7 8 -4 8 -9 0 -16 7 -16 15 0 8 4 15 9 15
5 0 6 5 3 10 -3 6 -1 10 5 10 6 0 8 5 4 11 -3 6 -17 9 -29 7 -18 -4 -22 -1
-17 10 3 9 1 13 -5 9 -5 -3 -10 0 -10 8 0 8 4 15 9 15 5 0 6 5 3 10 -3 6 -2
10 4 10 5 0 8 8 7 18 -2 11 -12 17 -27 17 -29 0 -42 15 -27 32 14 17 -4 17
-21 1 -10 -11 -11 -10 -6 5 4 10 2 17 -5 17 -6 0 -9 4 -6 8 3 5 -3 14 -14 22
-10 7 -16 19 -13 27 3 7 0 13 -7 13 -6 0 -9 4 -5 9 3 6 -3 15 -14 21 -11 6
-18 16 -15 23 2 7 -9 23 -25 35 -19 14 -28 28 -25 37 4 9 0 15 -10 15 -9 0
-16 6 -16 14 0 8 -11 23 -25 34 -17 14 -23 26 -18 37 4 13 2 16 -8 13 -7 -2
-27 12 -44 32 -16 19 -47 54 -67 75 -20 22 -36 43 -35 46 3 10 -34 49 -46 49
-5 0 -29 18 -54 40 -25 22 -50 40 -54 40 -5 0 -9 7 -9 16 0 9 -9 18 -20 21
-11 3 -20 12 -20 19 0 8 -3 13 -7 13 -21 -3 -33 2 -33 16 0 8 -7 15 -16 15 -9
0 -29 10 -46 21 -23 17 -27 24 -16 30 9 6 5 9 -14 9 -16 0 -28 5 -28 11 0 5
-5 7 -12 3 -8 -5 -9 -2 -5 10 5 13 2 17 -11 14 -9 -2 -25 7 -35 19 -11 13 -29
23 -44 23 -21 0 -24 2 -13 15 14 16 14 16 -45 20 -16 1 -31 7 -33 14 -2 6 -8
9 -13 5 -5 -3 -9 -1 -9 5 0 5 6 12 13 14 9 4 9 6 0 6 -6 1 -14 -3 -18 -9 -9
-15 -55 11 -55 32 0 13 -7 18 -27 17 -43 -3 -55 0 -48 11 4 6 -6 10 -23 10
-18 0 -42 11 -63 30 -32 28 -67 41 -55 21 3 -5 -15 -1 -42 9 -75 28 -79 30
-42 24 28 -4 32 -3 17 6 -10 6 -28 11 -40 10 -46 -4 -67 0 -67 14 0 17 -33 31
-38 17 -2 -6 -13 -11 -23 -11 -11 0 -17 5 -14 10 4 6 -5 10 -19 10 -19 0 -26
5 -26 19 0 17 -9 19 -112 19 -62 0 -167 5 -233 11 -99 10 -400 12 -409 4z
m662 -30 c-10 -2 -26 -2 -35 0 -10 3 -2 5 17 5 19 0 27 -2 18 -5z"/>
<path d="M3338 4603 c12 -2 30 -2 40 0 9 3 -1 5 -23 4 -22 0 -30 -2 -17 -4z"/>
<path d="M841 4241 c-7 -5 -12 -14 -10 -20 3 -7 11 -3 21 9 18 21 13 26 -11
11z"/>
<path d="M715 4120 c-3 -5 -2 -10 4 -10 5 0 13 5 16 10 3 6 2 10 -4 10 -5 0
-13 -4 -16 -10z"/>
<path d="M4660 3220 c0 -5 5 -10 10 -10 6 0 10 5 10 10 0 6 -4 10 -10 10 -5 0
-10 -4 -10 -10z"/>
<path d="M75 3050 c-3 -5 -1 -10 4 -10 6 0 11 5 11 10 0 6 -2 10 -4 10 -3 0
-8 -4 -11 -10z"/>
<path d="M11 2584 c0 -11 3 -14 6 -6 3 7 2 16 -1 19 -3 4 -6 -2 -5 -13z"/>
<path d="M4780 2459 c0 -27 2 -29 15 -15 8 8 15 22 15 30 0 9 -7 16 -15 16
-10 0 -15 -10 -15 -31z"/>
<path d="M2 2310 c0 -14 2 -19 5 -12 2 6 2 18 0 25 -3 6 -5 1 -5 -13z"/>
<path d="M198 1413 c7 -3 16 -2 19 1 4 3 -2 6 -13 5 -11 0 -14 -3 -6 -6z"/>
<path d="M3450 180 c0 -5 9 -10 19 -10 11 0 23 5 26 10 4 6 -5 10 -19 10 -14
0 -26 -4 -26 -10z"/>
<path d="M1578 113 c6 -2 18 -2 25 0 6 3 1 5 -13 5 -14 0 -19 -2 -12 -5z"/>
</g>
</svg>
